<?xml version="1.0" standalone="no"?>
<!DOCTYPE svg PUBLIC "-//W3C//DTD SVG 20010904//EN"
 "http://www.w3.org/TR/2001/REC-SVG-20010904/DTD/svg10.dtd">
<svg version="1.0" xmlns="http://www.w3.org/2000/svg"
 width="1024.000000pt" height="1024.000000pt" viewBox="0 0 1024.000000 1024.000000"
 preserveAspectRatio="xMidYMid meet">

<g transform="translate(0.000000,1024.000000) scale(0.100000,-0.100000)"
fill="#41af6dcc" stroke="none">
<path d="M30 10231 c0 -6 4 -13 10 -16 6 -3 7 1 4 9 -7 18 -14 21 -14 7z"/>
<path d="M3908 9043 c6 -2 18 -2 25 0 6 3 1 5 -13 5 -14 0 -19 -2 -12 -5z"/>
<path d="M6053 8953 c9 -2 25 -2 35 0 9 3 1 5 -18 5 -19 0 -27 -2 -17 -5z"/>
<path d="M5665 8480 c-82 -9 -177 -28 -395 -79 -191 -45 -300 -88 -493 -193
-135 -74 -205 -127 -321 -242 -177 -177 -308 -400 -401 -684 -64 -197 -71
-251 -56 -447 7 -88 17 -162 21 -165 15 -9 41 -92 42 -132 0 -21 4 -35 9 -32
5 3 9 2 9 -3 0 -4 20 -7 45 -5 32 3 50 10 60 25 8 12 15 16 15 9 0 -6 5 -12
10 -12 6 0 10 14 10 30 0 23 4 30 20 30 13 0 20 7 20 19 0 16 6 19 34 17 29
-3 36 1 40 20 5 19 13 24 36 24 17 0 30 5 30 10 0 6 7 10 15 10 8 0 15 -5 15
-11 0 -8 5 -8 15 1 8 7 12 16 9 21 -3 5 -1 9 5 9 6 0 16 -18 22 -41 10 -33 14
-37 22 -23 17 30 50 64 63 64 13 0 44 85 44 120 0 16 4 20 16 16 8 -3 13 -2 9
3 -3 5 1 16 9 24 8 8 14 35 14 66 1 29 3 56 6 59 3 3 6 -10 6 -30 0 -24 5 -35
15 -35 8 0 15 9 15 19 0 12 8 18 23 19 12 1 27 2 32 4 6 1 17 3 27 3 11 2 15
8 10 24 -4 16 -2 19 8 13 10 -6 12 -4 6 11 -28 68 -34 173 -12 224 13 31 14
27 18 -81 6 -119 15 -149 80 -275 24 -46 120 -148 204 -218 58 -47 191 -105
345 -149 153 -44 295 -75 187 -41 l-48 15 0 85 0 84 55 0 56 0 -23 30 -22 30
21 22 c11 13 23 31 26 41 4 11 17 17 36 17 23 0 30 5 33 25 3 14 2 27 -1 30
-4 2 -46 7 -94 11 l-87 7 0 36 c0 53 10 80 26 74 16 -6 44 19 44 41 0 20 6 22
68 31 l52 7 1 -74 1 -73 11 43 c15 54 29 63 97 60 53 -2 55 -3 62 -32 4 -23 6
-19 5 19 l-2 50 -87 3 -88 3 1 37 c0 20 3 32 6 25 3 -8 10 -9 21 -3 9 5 24 11
32 15 22 9 55 29 73 44 9 7 20 10 26 7 5 -4 12 2 14 11 3 10 5 0 6 -22 2 -71
13 -115 28 -115 8 0 12 4 9 9 -12 19 5 38 30 33 18 -3 24 0 24 13 0 14 8 16
49 13 l49 -3 6 58 7 57 57 1 c31 1 60 1 63 1 4 -1 -1 20 -11 46 -32 87 -35 99
-18 84 9 -7 22 -27 29 -45 6 -18 20 -50 29 -72 9 -22 33 -87 54 -145 42 -120
71 -174 88 -164 7 4 8 3 4 -4 -4 -7 -2 -12 3 -12 6 0 11 -5 11 -11 0 -15 82
-129 111 -154 13 -12 19 -14 14 -5 -8 13 -7 13 8 1 9 -7 17 -10 17 -6 0 4 7 2
15 -5 18 -15 21 -45 3 -34 -7 4 -8 3 -4 -5 4 -6 11 -9 16 -6 10 6 125 -72 125
-85 0 -4 4 -12 9 -17 5 -5 6 -2 1 6 -11 19 36 4 52 -17 10 -13 46 -17 190 -21
211 -7 459 1 474 16 7 7 -2 8 -33 2 -55 -10 -171 -11 -144 0 11 4 40 6 65 3
25 -2 43 -1 40 2 -3 3 -46 10 -95 15 l-89 9 98 -2 c54 -2 92 1 85 5 -13 8 -6
13 37 22 11 3 -1 5 -27 6 -36 1 -48 5 -48 16 0 9 10 15 28 16 15 1 38 5 52 10
20 6 17 7 -15 4 -132 -14 -158 -12 -55 4 123 19 183 35 215 58 19 14 19 15 -5
8 -14 -4 -48 -15 -77 -26 -29 -10 -90 -21 -135 -23 l-83 -5 70 14 70 14 -70
-4 c-65 -3 -67 -2 -25 7 130 27 298 74 313 86 7 6 17 11 22 12 14 2 20 10 8
10 -6 0 -26 -7 -46 -15 -30 -12 -81 -26 -149 -40 -9 -2 -26 -8 -37 -14 -11 -6
-68 -10 -133 -9 l-113 1 110 7 c70 4 134 14 175 28 36 12 97 30 135 41 39 11
79 27 90 36 15 10 6 9 -30 -4 -27 -11 -70 -25 -95 -31 -25 -7 -72 -20 -105
-30 -61 -19 -179 -29 -192 -17 -3 4 9 7 28 7 19 0 39 4 45 9 5 5 26 14 46 20
35 12 72 41 50 41 -6 0 -12 -4 -14 -10 -4 -13 -107 -39 -114 -29 -3 5 3 9 14
9 10 0 40 11 66 24 27 14 54 22 61 20 7 -3 27 11 46 30 22 24 36 32 44 26 8
-6 18 -4 31 6 18 14 18 14 -5 3 -22 -10 -23 -10 -18 11 5 19 0 17 -34 -16 -21
-21 -39 -32 -39 -26 0 8 -12 4 -32 -11 -41 -29 -88 -49 -88 -37 0 12 41 40 51
34 4 -2 10 0 13 4 3 5 -3 9 -14 8 -20 -1 -55 -26 -61 -44 -6 -13 -49 -26 -49
-13 0 5 9 13 20 16 11 3 20 11 20 16 0 6 -5 7 -12 3 -6 -4 -21 -8 -34 -10 -13
-1 -52 -9 -86 -17 -72 -18 -138 -29 -122 -22 27 13 191 56 212 56 12 -1 22 4
22 9 0 5 -7 6 -17 3 -9 -4 -14 -2 -10 3 3 6 2 16 -2 23 -7 10 -14 10 -39 -3
-43 -22 -51 -20 -22 7 14 12 20 18 13 13 -16 -11 -17 -1 -1 27 10 20 10 21 -5
8 -10 -7 -17 -20 -17 -27 0 -17 -36 -41 -75 -49 -27 -5 -26 -4 10 15 28 14 47
34 63 66 13 26 21 48 18 51 -2 3 -11 -8 -19 -24 -17 -32 -48 -61 -92 -87 -19
-11 -9 1 25 33 30 28 49 51 42 51 -9 0 -7 8 7 26 12 15 21 32 21 38 0 6 -9 -3
-19 -20 -11 -17 -34 -36 -51 -43 -25 -8 -30 -8 -22 2 6 6 11 17 12 22 2 6 5
16 8 23 11 29 -7 20 -22 -11 -16 -35 -46 -67 -46 -50 0 5 5 14 12 21 15 15 3
16 -23 2 -20 -11 -28 3 -9 15 5 3 15 15 21 27 9 16 3 14 -27 -10 -24 -19 -55
-33 -79 -36 -22 -3 -33 -3 -25 1 8 3 18 10 21 15 3 5 12 10 20 11 24 4 39 17
39 35 0 13 -2 13 -14 -4 -19 -25 -31 -12 -15 18 11 21 11 22 -4 9 -10 -7 -17
-21 -17 -31 0 -11 -10 -20 -26 -24 -31 -8 -45 -1 -17 8 20 6 66 93 53 101 -4
2 -13 -13 -20 -34 -12 -38 -42 -61 -78 -61 -10 0 -4 7 14 16 22 10 34 26 39
47 9 36 9 32 4 125 l-3 67 -5 -75 c-3 -41 -2 -78 2 -81 4 -3 1 -12 -8 -19 -8
-7 -15 -18 -15 -24 0 -6 -19 -19 -43 -28 l-42 -17 41 37 c40 36 41 39 42 102
l0 65 -9 -59 c-10 -66 -14 -74 -61 -99 l-33 -18 33 29 c26 23 35 39 38 73 l4
44 -11 -35 c-18 -58 -32 -61 -22 -5 11 70 6 307 -8 358 -17 60 -18 68 -8 61 5
-3 9 1 9 8 1 18 19 -14 23 -41 2 -11 6 -24 10 -27 4 -4 7 -15 7 -24 0 -10 8
-24 17 -31 15 -13 16 -11 9 11 -4 14 -9 37 -10 51 -10 81 -72 188 -140 243
-48 38 -184 125 -241 153 -50 26 -122 46 -252 72 -242 50 -595 7 -763 -91 -30
-18 -107 -53 -170 -79 -139 -56 -276 -130 -339 -183 -45 -37 -45 -37 5 11 56
53 157 111 324 184 58 25 131 63 163 83 32 21 72 42 88 48 16 5 26 14 23 20
-4 6 2 8 16 3 15 -5 20 -4 16 4 -4 7 1 11 13 11 12 0 22 5 22 10 5 34 14 46
41 53 13 3 46 13 73 22 49 15 49 15 10 11 -22 -3 -60 -7 -85 -10 l-45 -5 45
11 c25 6 79 19 120 29 l75 18 -70 -4 -70 -5 89 20 c98 22 125 34 56 25 -44 -5
-44 -5 10 10 76 21 82 26 30 20 l-45 -5 35 14 c19 8 55 16 80 17 l45 2 -50 6
c-49 7 -47 7 40 16 69 7 83 10 60 16 l-30 7 31 1 c17 0 47 4 65 8 33 7 33 7 9
14 -18 5 -9 8 35 10 l60 2 -55 7 c-30 4 -45 7 -33 8 32 3 38 21 12 43 -12 10
-25 19 -28 19 -3 1 -51 7 -106 14 -112 15 -319 18 -440 6z m202 -246 c-3 -3
-12 -4 -19 -1 -8 3 -5 6 6 6 11 1 17 -2 13 -5z m-150 -50 c-3 -3 -12 -4 -19
-1 -8 3 -5 6 6 6 11 1 17 -2 13 -5z m853 -556 c0 -12 -6 -9 -26 13 -19 22 -19
22 4 8 12 -8 22 -17 22 -21z m110 -9 c0 -6 -4 -7 -10 -4 -5 3 -10 11 -10 16 0
6 5 7 10 4 6 -3 10 -11 10 -16z m-35 -9 c3 -5 1 -10 -4 -10 -6 0 -11 5 -11 10
0 6 2 10 4 10 3 0 8 -4 11 -10z m134 -55 c0 -13 -5 -8 -14 15 -18 46 -18 61 0
30 8 -14 14 -34 14 -45z m-27 -2 c26 -60 36 -126 43 -288 3 -90 3 -90 -5 -21
-13 100 -26 99 -21 -2 1 -48 1 -85 -2 -82 -6 6 -15 75 -18 140 l-2 45 -11 -60
c-12 -59 -12 -59 -18 94 -3 84 -10 156 -15 160 -10 6 -27 61 -19 61 15 0 55
-115 61 -177 4 -40 10 -73 14 -73 12 0 -15 182 -32 223 -9 20 -13 37 -9 37 5
0 19 -26 34 -57z m98 32 c10 6 27 -71 36 -163 7 -82 -12 -233 -33 -260 -11
-15 -12 -14 -4 9 5 14 12 72 15 130 l5 104 -14 -60 c-8 -33 -14 -80 -15 -105
-1 -76 -20 -85 -21 -10 0 36 -5 92 -10 125 -13 83 -17 171 -10 209 6 26 10 15
25 -65 10 -53 15 -106 12 -117 -4 -11 -2 -23 4 -27 7 -4 10 25 9 89 0 53 -4
94 -9 91 -4 -3 -8 12 -8 33 0 20 3 31 5 24 3 -6 8 -10 13 -7z m-251 -54 c-2
-9 3 -35 10 -58 7 -25 11 -87 9 -150 l-3 -108 -13 120 c-19 180 -23 265 -11
236 5 -14 9 -32 8 -40z m-41 18 c-3 -8 -7 -3 -11 10 -4 17 -3 21 5 13 5 -5 8
-16 6 -23z m124 -23 c7 5 8 2 3 -6 -4 -7 -3 -15 3 -19 6 -4 12 -40 14 -81 2
-92 -1 -195 -6 -189 -2 2 -7 45 -11 94 -4 50 -11 110 -16 135 -5 25 -11 61
-14 80 -5 34 -5 34 6 7 6 -15 15 -24 21 -21z m-530 5 c10 -9 18 -22 17 -31 0
-12 -2 -12 -6 -1 -3 8 -18 25 -32 38 -27 26 -10 20 21 -6z m503 -89 c26 -151
30 -221 5 -126 -9 35 -9 32 -5 -26 3 -48 2 -60 -6 -47 -6 10 -12 66 -14 125
-3 59 -7 125 -10 147 -11 73 15 11 30 -73z m-195 73 c0 -8 -2 -15 -4 -15 -2 0
-6 7 -10 15 -3 8 -1 15 4 15 6 0 10 -7 10 -15z m44 -50 c5 -19 4 -26 -2 -20
-5 6 -12 28 -16 50 -6 43 5 24 18 -30z m-77 33 c-3 -8 -6 -5 -6 6 -1 11 2 17
5 13 3 -3 4 -12 1 -19z m114 -119 c1 -50 -1 -93 -5 -96 -3 -3 -6 29 -6 73 0
43 -3 97 -5 119 -5 34 -4 36 5 16 6 -13 11 -63 11 -112z m39 13 c6 -48 9 -96
9 -107 -1 -36 -26 88 -32 160 -9 103 12 57 23 -53z m-107 68 c3 -11 1 -18 -4
-14 -5 3 -9 12 -9 20 0 20 7 17 13 -6z m32 -39 c3 -5 1 -12 -5 -16 -5 -3 -10
1 -10 9 0 18 6 21 15 7z m2 -108 c-2 -16 -4 -3 -4 27 0 30 2 43 4 28 2 -16 2
-40 0 -55z m440 -289 c-3 -3 -12 -4 -19 -1 -8 3 -5 6 6 6 11 1 17 -2 13 -5z
m248 -9 c-11 -8 -31 -24 -43 -35 -13 -11 -29 -20 -35 -20 -6 0 -3 6 8 13 12 9
15 19 10 28 -5 8 -5 11 -1 7 4 -3 22 0 39 7 41 18 47 18 22 0z m-120 -5 c-3
-5 -10 -10 -16 -10 -5 0 -9 5 -9 10 0 6 7 10 16 10 8 0 12 -4 9 -10z m25 -25
c-14 -8 -34 -14 -45 -14 -15 0 -13 3 10 14 40 18 67 18 35 0z m-2473 -37 c-3
-8 -6 -5 -6 6 -1 11 2 17 5 13 3 -3 4 -12 1 -19z m2473 3 c0 -5 -9 -11 -20
-14 -11 -3 -20 -1 -20 3 0 5 8 11 18 13 9 3 18 5 20 6 1 0 2 -3 2 -8z m-53
-17 c-3 -3 -12 -4 -19 -1 -8 3 -5 6 6 6 11 1 17 -2 13 -5z m263 -4 c-8 -5 -19
-10 -25 -10 -5 0 -3 5 5 10 8 5 20 10 25 10 6 0 3 -5 -5 -10z m-190 -10 c0 -5
-5 -10 -11 -10 -5 0 -7 5 -4 10 3 6 8 10 11 10 2 0 4 -4 4 -10z m150 -1 c0 -3
-15 -9 -32 -12 -18 -4 -59 -13 -91 -20 -42 -11 -59 -11 -64 -3 -3 6 -3 8 1 5
4 -4 39 3 79 15 73 22 107 27 107 15z m-180 -9 c0 -5 -19 -9 -42 -9 l-43 2 35
7 c19 4 38 8 43 9 4 0 7 -3 7 -9z m415 0 c-3 -5 -11 -10 -16 -10 -6 0 -7 5 -4
10 3 6 11 10 16 10 6 0 7 -4 4 -10z m-442 -37 c-7 -2 -19 -2 -25 0 -7 3 -2 5
12 5 14 0 19 -2 13 -5z m234 -9 c-15 -8 -51 -17 -80 -20 l-52 -4 70 19 c87 23
97 24 62 5z m-320 -10 c-3 -3 -12 -4 -19 -1 -8 3 -5 6 6 6 11 1 17 -2 13 -5z
m86 -11 c-7 -2 -19 -2 -25 0 -7 3 -2 5 12 5 14 0 19 -2 13 -5z m-118 -21 c-3
-3 -11 0 -18 7 -9 10 -8 11 6 5 10 -3 15 -9 12 -12z m212 12 c-3 -3 -12 -4
-19 -1 -8 3 -5 6 6 6 11 1 17 -2 13 -5z m137 -2 c3 -5 -14 -9 -37 -9 -39 -1
-40 -1 -12 7 42 11 43 11 49 2z m-227 -18 c-3 -3 -12 -4 -19 -1 -8 3 -5 6 6 6
11 1 17 -2 13 -5z m136 -1 c-7 -2 -21 -2 -30 0 -10 3 -4 5 12 5 17 0 24 -2 18
-5z m-190 -10 c-7 -2 -21 -2 -30 0 -10 3 -4 5 12 5 17 0 24 -2 18 -5z m-392
-20 c13 -16 12 -17 -3 -4 -10 7 -18 15 -18 17 0 8 8 3 21 -13z m326 11 c-3 -3
-12 -4 -19 -1 -8 3 -5 6 6 6 11 1 17 -2 13 -5z m160 0 c-3 -3 -12 -4 -19 -1
-8 3 -5 6 6 6 11 1 17 -2 13 -5z m146 -1 c-13 -2 -33 -2 -45 0 -13 2 -3 4 22
4 25 0 35 -2 23 -4z m-559 -75 c-3 -5 -14 2 -25 16 -26 33 -24 40 6 14 13 -11
22 -25 19 -30z m369 45 c-7 -2 -19 -2 -25 0 -7 3 -2 5 12 5 14 0 19 -2 13 -5z
m124 1 c-3 -3 -12 -4 -19 -1 -8 3 -5 6 6 6 11 1 17 -2 13 -5z m-1630 -26 c-3
-8 -6 -5 -6 6 -1 11 2 17 5 13 3 -3 4 -12 1 -19z m1308 12 c3 -5 1 -10 -4 -10
-6 0 -11 5 -11 10 0 6 2 10 4 10 3 0 8 -4 11 -10z m432 4 c-3 -3 -12 -4 -19
-1 -8 3 -5 6 6 6 11 1 17 -2 13 -5z m-209 -11 c-10 -2 -26 -2 -35 0 -10 3 -2
5 17 5 19 0 27 -2 18 -5z m150 0 c-10 -2 -28 -2 -40 0 -13 2 -5 4 17 4 22 1
32 -1 23 -4z m-448 -13 c0 -5 -2 -10 -4 -10 -3 0 -8 5 -11 10 -3 6 -1 10 4 10
6 0 11 -4 11 -10z m373 3 c-7 -2 -19 -2 -25 0 -7 3 -2 5 12 5 14 0 19 -2 13
-5z m-403 -29 c0 -2 -9 0 -20 6 -11 6 -20 13 -20 16 0 2 9 0 20 -6 11 -6 20
-13 20 -16z m243 19 c-7 -2 -19 -2 -25 0 -7 3 -2 5 12 5 14 0 19 -2 13 -5z
m265 0 c-10 -2 -28 -2 -40 0 -13 2 -5 4 17 4 22 1 32 -1 23 -4z m-1688 -33 c0
-25 -4 -30 -24 -30 -13 0 -29 6 -35 14 -10 12 -7 18 16 30 39 21 43 20 43 -14z
m1537 24 c-3 -3 -12 -4 -19 -1 -8 3 -5 6 6 6 11 1 17 -2 13 -5z m71 -1 c-10
-2 -28 -2 -40 0 -13 2 -5 4 17 4 22 1 32 -1 23 -4z m-458 -25 c0 -6 -6 -5 -15
2 -8 7 -15 14 -15 16 0 2 7 1 15 -2 8 -4 15 -11 15 -16z m545 12 c-16 -4 -52
-7 -80 -7 l-50 0 50 7 c28 4 64 7 80 7 l30 1 -30 -8z m-446 -26 c14 -12 -19
-1 -35 12 -18 14 -18 14 6 3 14 -6 27 -13 29 -15z m229 9 c-10 -2 -28 -2 -40
0 -13 2 -5 4 17 4 22 1 32 -1 23 -4z m-288 -13 c8 -5 11 -10 5 -10 -5 0 -17 5
-25 10 -8 5 -10 10 -5 10 6 0 17 -5 25 -10z m493 3 c-7 -2 -19 -2 -25 0 -7 3
-2 5 12 5 14 0 19 -2 13 -5z m-85 -10 c-16 -2 -40 -2 -55 0 -16 2 -3 4 27 4
30 0 43 -2 28 -4z m191 3 c-2 -2 -24 -6 -48 -9 -29 -4 -40 -2 -30 4 13 8 88
14 78 5z m-554 -24 c-3 -3 -11 0 -18 7 -9 10 -8 11 6 5 10 -3 15 -9 12 -12z
m93 11 c-10 -2 -28 -2 -40 0 -13 2 -5 4 17 4 22 1 32 -1 23 -4z m129 1 c-3 -3
-12 -4 -19 -1 -8 3 -5 6 6 6 11 1 17 -2 13 -5z m-177 -22 c0 -4 -9 -8 -19 -8
-11 0 -17 4 -15 8 3 4 12 8 20 8 8 0 14 -4 14 -8z m198 1 c-10 -2 -26 -2 -35
0 -10 3 -2 5 17 5 19 0 27 -2 18 -5z m200 0 c-10 -2 -28 -2 -40 0 -13 2 -5 4
17 4 22 1 32 -1 23 -4z m90 0 c-10 -2 -28 -2 -40 0 -13 2 -5 4 17 4 22 1 32
-1 23 -4z m47 -3 c-3 -5 -10 -10 -16 -10 -5 0 -9 5 -9 10 0 6 7 10 16 10 8 0
12 -4 9 -10z m-438 -16 c-3 -3 -12 -4 -19 -1 -8 3 -5 6 6 6 11 1 17 -2 13 -5z
m171 -1 c-21 -2 -55 -2 -75 0 -21 2 -4 4 37 4 41 0 58 -2 38 -4z m-129 -19 c8
-7 -114 -2 -139 6 -14 4 11 5 55 2 44 -2 82 -6 84 -8z m228 10 c-3 -3 -12 -4
-19 -1 -8 3 -5 6 6 6 11 1 17 -2 13 -5z m1 -21 c-32 -2 -86 -2 -120 0 -35 2
-9 3 57 3 66 0 94 -1 63 -3z"/>
<path d="M7956 8425 c27 -33 52 -62 57 -63 4 -2 5 -8 2 -12 -3 -5 -1 -11 4
-14 13 -8 7 22 -7 36 -7 7 -12 18 -12 25 0 7 -3 12 -8 11 -4 -2 -25 15 -46 37
-31 32 -29 28 10 -20z"/>
<path d="M4215 8276 c-33 -24 -71 -56 -85 -71 -20 -22 108 72 145 106 23 22
-6 5 -60 -35z"/>
<path d="M8073 8249 c104 -169 172 -341 208 -529 29 -156 23 -349 -16 -490
-80 -288 -284 -542 -533 -665 -199 -98 -359 -133 -552 -121 -58 3 -136 13
-174 21 -81 17 -98 14 -30 -5 26 -8 73 -29 103 -47 31 -19 72 -39 92 -45 22
-6 41 -20 48 -34 6 -14 19 -24 32 -24 14 0 19 -5 16 -14 -4 -10 8 -16 48 -21
100 -12 237 -44 262 -60 23 -16 25 -15 30 4 3 12 9 19 13 16 4 -3 36 -5 71 -6
56 -1 67 -5 91 -29 25 -26 31 -28 109 -26 80 1 83 2 89 26 5 20 13 26 43 28
20 2 37 7 37 12 0 5 27 8 60 7 58 -2 60 -3 60 -29 0 -28 0 -28 72 -28 54 0 76
-4 91 -17 20 -18 20 -17 14 25 -7 58 6 68 98 75 42 3 79 8 82 11 3 3 9 37 12
75 4 39 10 73 14 77 4 4 7 0 7 -9 0 -10 8 -17 19 -17 14 0 21 8 23 28 3 24 8
28 50 32 26 3 50 9 54 12 3 4 9 37 12 73 4 51 9 68 24 76 10 5 16 14 13 18 -3
5 27 12 65 16 l70 7 0 53 c0 29 3 73 6 99 6 42 9 46 35 46 35 0 46 16 16 25
-13 4 -17 8 -9 12 6 2 12 18 12 34 0 17 7 43 16 60 23 46 11 69 -38 69 l-41 0
5 163 c2 89 3 134 1 100 -3 -54 -7 -63 -23 -63 -39 0 -50 10 -37 37 7 16 7 27
1 31 -12 8 -44 86 -44 107 0 8 9 15 20 15 17 0 19 4 14 28 -8 31 -22 52 -36
52 -13 0 -38 26 -38 39 0 6 -4 11 -9 11 -6 0 -12 15 -14 33 l-4 32 -1 -33 c-2
-38 -23 -40 -32 -2 -3 13 -14 27 -25 31 -18 7 -18 8 3 8 22 1 20 5 -22 46 -31
30 -46 53 -46 70 0 14 -9 33 -20 42 -11 10 -20 23 -20 30 0 6 -8 14 -18 17
-10 4 -32 26 -50 51 -17 25 -49 57 -71 72 -22 16 -40 34 -41 41 0 17 -99 122
-115 122 -16 0 -85 73 -85 90 0 7 -3 10 -7 7 -3 -4 -15 0 -25 10 -10 9 -33 17
-52 18 -18 1 -39 6 -47 11 -7 4 -1 -12 14 -37z"/>
<path d="M5726 8112 c-3 -5 8 -6 25 -4 16 2 29 6 29 8 0 8 -49 4 -54 -4z"/>
<path d="M3831 7843 c-10 -26 -10 -27 4 -9 8 11 15 23 15 28 0 15 -7 8 -19
-19z"/>
<path d="M3778 7758 c-17 -27 -29 -58 -23 -58 3 0 14 18 25 40 22 43 21 54 -2
18z"/>
<path d="M3709 7695 c-2 -16 -2 -40 -1 -53 0 -12 -3 -20 -8 -17 -4 3 -11 -2
-14 -11 -4 -9 -2 -12 5 -8 7 4 10 -1 7 -12 -2 -11 -10 -19 -17 -19 -8 0 -16
-6 -19 -14 -3 -8 0 -11 7 -7 6 4 11 0 11 -9 0 -11 -5 -15 -15 -11 -9 3 -15 0
-15 -9 0 -26 -19 -16 -23 13 -2 15 -5 -5 -6 -44 -1 -52 -5 -73 -15 -77 -8 -3
-17 -1 -20 6 -2 7 -5 0 -5 -15 -1 -16 -6 -28 -12 -28 -6 0 -8 9 -4 23 5 15 4
19 -3 12 -6 -5 -15 -39 -20 -75 l-10 -65 -2 50 -2 50 -13 -65 -13 -65 -2 45
c-3 41 -3 42 -7 10 -2 -19 -6 -42 -9 -50 -4 -13 -6 -13 -15 0 -6 10 -7 4 -3
-20 4 -23 3 -31 -4 -22 -12 17 -21 -4 -23 -51 -2 -30 -2 -29 -9 8 l-7 40 -2
-48 c0 -29 -5 -46 -11 -42 -5 3 -10 1 -10 -6 0 -8 -4 -8 -15 1 -13 11 -15 8
-15 -18 0 -17 -3 -39 -7 -49 -6 -14 -9 -8 -14 22 l-6 40 -2 -49 c-1 -42 -3
-47 -16 -36 -13 11 -15 6 -17 -36 -1 -47 -2 -46 -8 16 l-7 65 -1 -52 c-2 -56
-18 -72 -25 -25 l-4 27 -2 -27 c-1 -28 -20 -40 -22 -15 -1 6 -5 -6 -9 -28 l-7
-40 -3 45 -2 45 -13 -65 -13 -65 -3 75 -3 75 -6 -80 c-3 -44 -7 -63 -8 -42 -3
56 -22 44 -24 -15 l-1 -53 -7 65 c-5 45 -7 54 -9 30 -2 -19 -7 -46 -11 -60 -6
-19 -9 -9 -11 40 -2 59 -3 61 -7 20 l-5 -45 -13 40 -12 40 -2 -60 -2 -60 -16
60 -16 60 -6 -42 c-8 -57 -19 -66 -14 -11 5 57 -4 29 -15 -47 l-9 -60 -2 80
c-3 76 -3 77 -9 28 -6 -46 -21 -86 -21 -55 0 17 -29 15 -47 -4 -13 -13 -15
-30 -8 -102 4 -48 9 -103 10 -122 8 -88 38 -235 70 -339 68 -220 316 -646 455
-781 164 -159 239 -230 244 -230 3 0 16 -9 28 -19 141 -118 217 -168 372 -247
61 -31 112 -61 114 -65 2 -5 19 -11 38 -15 19 -3 37 -10 40 -15 3 -5 15 -9 27
-9 12 0 47 -12 77 -26 59 -28 141 -57 205 -72 22 -6 139 -36 260 -67 121 -32
254 -64 295 -72 148 -28 407 -96 492 -129 48 -19 92 -34 98 -34 6 0 48 -18 92
-40 45 -22 87 -40 94 -40 6 0 34 -24 63 -54 28 -30 51 -53 51 -50 0 4 23 -14
86 -70 43 -38 117 -135 92 -120 -7 4 -5 -1 4 -12 9 -11 21 -37 27 -59 6 -22
17 -65 26 -95 23 -82 29 -204 15 -290 -14 -85 -56 -217 -76 -241 -8 -8 -14
-21 -14 -27 0 -23 -157 -170 -211 -198 -172 -91 -322 -119 -574 -109 -155 6
-294 24 -275 35 5 3 -19 17 -54 29 -148 52 -326 203 -431 365 -67 104 -101
173 -161 331 -62 163 -144 318 -159 303 -3 -3 0 -12 8 -20 8 -8 11 -21 7 -33
-6 -17 -9 -14 -19 17 -7 21 -10 42 -6 48 3 5 0 7 -9 4 -11 -4 -24 12 -45 55
-17 33 -47 73 -67 88 -19 15 -45 36 -56 46 -12 9 -26 17 -32 17 -6 0 3 -11 19
-23 54 -40 115 -99 110 -107 -3 -5 -1 -11 4 -14 12 -8 93 -167 88 -173 -2 -2
-15 18 -28 44 -27 55 -48 83 -61 83 -5 0 0 -12 11 -27 20 -29 68 -200 58 -209
-3 -4 -9 11 -13 32 -8 50 -52 165 -70 184 -15 16 -12 2 25 -100 11 -30 20 -66
20 -80 0 -14 -10 8 -21 48 -12 41 -26 72 -33 72 -7 0 -16 7 -19 16 -8 22 -8
26 4 19 6 -3 2 15 -9 42 -10 26 -27 52 -37 58 -11 5 -36 25 -57 43 -20 17 -43
32 -50 32 -6 0 -3 -6 8 -12 11 -6 32 -24 46 -40 14 -15 33 -28 41 -28 9 0 23
-18 32 -41 18 -46 15 -63 -6 -30 -7 12 -17 21 -22 21 -5 0 0 -11 12 -23 23
-24 47 -87 33 -87 -4 0 -13 16 -20 35 -7 19 -16 35 -21 35 -5 0 -25 14 -45 31
-20 18 -39 29 -42 25 -4 -4 4 -14 17 -23 65 -45 78 -66 84 -128 l5 -60 -17 55
c-22 73 -49 100 -126 130 -37 14 -32 4 7 -15 52 -24 88 -58 92 -85 1 -14 6
-45 9 -70 l6 -45 -18 52 c-33 99 -43 73 -17 -43 9 -36 15 -74 13 -83 -2 -9
-12 21 -22 67 -14 59 -23 81 -32 78 -8 -3 -20 9 -30 30 -9 19 -25 39 -36 45
-29 16 -32 4 -4 -14 16 -11 28 -33 37 -67 7 -27 18 -50 24 -50 7 0 16 -28 21
-65 12 -77 1 -87 -16 -15 -14 60 -70 172 -88 178 -11 3 -11 -1 1 -19 27 -42
64 -152 69 -206 6 -58 -6 -63 -17 -7 -14 79 -46 161 -74 194 l-30 35 25 -50
c23 -48 70 -242 61 -251 -2 -3 -14 28 -27 68 -44 144 -50 163 -60 178 -14 22
-23 5 -10 -19 6 -12 20 -62 30 -113 15 -69 37 -125 90 -230 38 -76 70 -142 70
-146 0 -13 -81 131 -117 208 -43 92 -56 125 -83 217 -12 40 -26 76 -32 79 -8
5 -9 -1 -4 -17 4 -13 15 -56 25 -95 31 -120 73 -221 135 -324 52 -88 53 -91
12 -46 -19 22 -33 43 -30 48 3 4 1 8 -4 8 -18 0 -80 140 -150 340 -4 13 -6 13
-9 -1 -5 -19 81 -283 102 -316 18 -26 19 -33 5 -33 -12 0 -44 65 -76 153 -60
166 -74 210 -74 226 0 9 -6 26 -14 36 -11 15 -11 7 1 -50 7 -37 23 -93 34
-124 64 -175 63 -171 52 -171 -5 0 -26 41 -48 90 -22 50 -43 90 -47 90 -9 0
22 -83 51 -138 12 -24 20 -47 16 -50 -9 -10 -42 35 -67 91 -11 26 -23 45 -26
43 -8 -9 75 -170 105 -201 16 -16 36 -43 46 -58 18 -28 18 -28 -3 -15 -11 7
-26 25 -32 40 -7 15 -22 32 -34 39 -12 6 -37 34 -54 61 -18 27 -34 47 -36 45
-3 -2 4 -25 15 -50 11 -25 22 -58 24 -74 3 -15 8 -36 12 -45 4 -10 4 -18 1
-18 -4 0 -23 37 -43 81 -21 45 -39 77 -41 71 -3 -9 38 -136 63 -194 4 -10 3
-18 -1 -18 -9 0 -55 90 -75 148 -6 17 -15 32 -19 32 -15 0 28 -149 52 -177 6
-7 9 -16 6 -19 -10 -9 -65 84 -82 140 -19 60 -39 77 -29 24 10 -57 48 -136 82
-175 18 -21 48 -60 66 -88 18 -27 43 -62 56 -76 13 -14 31 -34 39 -44 15 -19
14 -19 -14 -1 -32 21 -82 74 -111 120 -11 17 -37 48 -57 69 -32 33 -63 99 -93
191 -3 10 -8 16 -11 13 -4 -3 -1 -20 5 -38 6 -18 11 -43 11 -55 0 -13 5 -24
10 -24 6 0 10 -7 10 -15 0 -35 -20 -9 -59 76 -46 101 -62 114 -32 27 26 -75
36 -94 90 -158 165 -198 219 -248 359 -329 39 -23 72 -44 72 -46 0 -9 -157 80
-206 116 -106 78 -299 311 -332 401 -31 85 -32 86 -28 18 2 -40 1 -57 -4 -45
-5 11 -9 43 -10 70 -2 56 -26 161 -30 130 -1 -11 -6 9 -11 44 -4 35 -13 69
-19 75 -5 5 -11 24 -12 41 -1 16 -5 -28 -8 -100 l-6 -130 -2 130 c-1 78 -6
135 -13 142 -8 8 -8 13 0 17 6 4 11 13 11 19 0 7 -7 3 -15 -7 -11 -15 -15 -53
-16 -150 l-2 -131 -9 95 c-6 52 -10 124 -10 160 l0 65 -10 -55 c-5 -30 -8
-116 -5 -190 6 -170 -8 -104 -19 90 -4 80 -9 134 -11 120 -2 -14 -11 -54 -20
-90 -11 -45 -14 -91 -10 -150 5 -71 4 -78 -4 -40 -6 25 -8 96 -6 159 3 65 1
107 -4 100 -5 -8 -9 -24 -9 -37 0 -14 -4 -21 -11 -16 -8 4 -9 -31 -4 -127 4
-74 4 -131 1 -128 -4 4 -11 65 -16 135 -6 71 -13 145 -16 164 -7 34 -7 34 -14
10 -5 -14 -9 -81 -10 -150 l-3 -125 -8 125 c-12 170 -14 174 -23 35 -11 -180
-15 -179 -13 3 2 135 0 158 -10 134 -7 -16 -16 -92 -21 -168 l-10 -139 3 155
c1 85 5 166 9 180 6 22 5 21 -10 -5 -15 -25 -19 -65 -24 -225 -5 -188 -6 -192
-14 -107 -9 96 -4 290 9 321 7 16 5 16 -15 -4 -21 -21 -24 -36 -31 -144 l-7
-121 2 145 c1 91 7 154 15 170 12 24 11 24 -4 5 -9 -11 -18 -31 -22 -45 -3
-14 -12 -45 -21 -70 -9 -27 -18 -100 -22 -180 -5 -113 -7 -123 -10 -60 -5 119
0 190 21 265 14 55 15 66 4 51 -8 -11 -15 -30 -15 -42 0 -12 -5 -24 -11 -26
-6 -2 -17 -67 -25 -152 -8 -82 -17 -152 -20 -155 -3 -3 -5 10 -3 29 1 19 -1
48 -6 64 -5 18 -4 41 3 60 6 17 12 60 13 96 2 57 9 88 43 185 4 11 -2 4 -12
-15 -32 -57 -61 -195 -71 -340 l-10 -135 5 165 c2 91 6 176 9 190 l6 25 -11
-25 c-6 -14 -14 -62 -17 -107 -3 -46 -10 -83 -16 -83 -9 0 -3 139 9 200 4 21
3 22 -4 5 -5 -11 -15 -60 -22 -110 -17 -127 -18 -129 -19 -41 0 44 -3 77 -6
74 -7 -7 -8 -147 -2 -268 l6 -105 -14 90 c-7 50 -14 113 -14 142 -1 28 -5 54
-10 57 -10 7 -24 -224 -17 -285 4 -33 3 -38 -3 -19 -5 14 -9 42 -10 63 -1 51
-21 47 -23 -5 -1 -42 -1 -41 -8 12 -4 31 -6 -17 -4 -109 4 -195 9 -235 40
-365 26 -106 126 -315 154 -323 9 -2 38 -41 65 -86 51 -85 91 -133 185 -221
30 -28 111 -108 180 -178 74 -76 153 -146 195 -172 39 -25 83 -56 99 -70 17
-14 57 -40 90 -57 34 -18 68 -37 76 -44 8 -7 32 -18 53 -25 20 -6 37 -16 37
-21 0 -6 5 -7 10 -4 6 3 10 2 10 -4 0 -6 7 -7 17 -4 11 4 14 3 9 -5 -4 -7 -1
-12 8 -12 9 0 16 -5 16 -12 0 -6 3 -9 6 -5 3 3 35 -8 70 -23 54 -25 103 -42
159 -56 6 -1 58 -21 117 -43 137 -53 469 -136 622 -156 121 -16 543 -30 721
-23 229 9 258 12 313 32 23 8 44 15 47 16 3 0 6 0 8 1 12 4 51 11 97 18 85 14
150 30 208 51 29 11 64 20 77 20 14 0 25 5 25 10 0 6 9 10 20 10 11 0 20 5 20
10 0 6 5 10 11 10 5 0 7 -5 3 -11 -4 -8 0 -8 15 0 11 7 21 16 21 21 0 5 16 12
35 16 19 3 32 10 29 15 -3 5 2 6 10 3 8 -3 28 2 45 11 17 8 31 13 31 10 0 -3
11 2 25 11 14 9 32 14 40 10 9 -3 14 -2 11 3 -7 11 22 37 53 46 16 5 21 4 17
-4 -5 -7 -1 -8 9 -4 11 4 13 8 5 13 -8 5 -6 11 5 20 8 7 18 10 22 6 3 -3 1 -6
-6 -6 -7 0 -10 -4 -7 -8 7 -11 64 -3 73 11 3 6 1 7 -5 3 -7 -4 -12 -3 -12 1 0
5 16 17 35 27 19 11 35 23 35 28 0 5 -6 6 -12 2 -8 -5 -7 -1 1 10 14 17 16 17
29 -1 12 -16 13 -16 8 9 -3 18 1 31 12 40 15 11 15 11 4 -3 -10 -14 -10 -18 3
-23 8 -3 15 -2 15 3 0 4 20 19 44 32 25 13 44 28 43 34 -1 5 7 9 18 8 11 -1
14 0 7 3 -6 3 -9 11 -5 17 4 7 0 8 -11 4 -11 -4 -15 -3 -11 4 4 6 13 8 20 5
16 -6 95 25 95 37 0 5 -5 5 -12 1 -7 -5 -8 -3 -3 6 4 7 2 16 -6 21 -9 6 -10 9
-2 9 6 0 18 -7 27 -15 9 -9 17 -11 21 -5 3 5 1 10 -4 10 -20 0 -11 17 14 28
34 16 40 15 25 -3 -7 -8 -17 -12 -23 -8 -6 4 -7 1 -2 -7 6 -9 23 3 62 46 30
32 57 58 59 56 3 -2 9 -1 12 3 4 4 3 6 -3 5 -22 -5 -27 1 -15 15 10 12 10 15
-1 15 -7 0 -2 8 11 17 14 9 35 28 46 41 18 20 25 22 43 13 11 -7 22 -9 22 -6
1 3 2 11 3 18 1 6 8 11 14 9 10 -2 10 3 2 17 -7 14 -7 22 2 27 7 4 8 3 4 -4
-7 -11 4 -15 22 -9 4 1 6 14 5 29 -1 16 5 29 14 32 13 5 14 4 3 -9 -30 -36 27
0 78 49 29 28 55 50 58 48 3 -2 9 0 12 4 4 4 2 4 -5 0 -6 -3 -14 -2 -17 3 -8
13 4 42 15 35 5 -3 9 4 9 15 0 12 4 21 10 21 5 0 7 -7 4 -15 -4 -8 -4 -15 -1
-15 8 0 38 51 42 72 3 11 7 23 11 27 4 3 4 -3 0 -13 -7 -19 -6 -19 13 -2 10
10 22 30 26 44 7 25 8 25 15 7 6 -15 10 -7 19 38 14 67 24 76 16 15 -4 -32 -3
-38 4 -23 5 11 10 35 10 53 1 17 4 32 9 32 4 0 6 -19 5 -42 -3 -49 2 -42 12
17 6 32 9 36 15 20 6 -17 10 -13 19 23 9 32 16 42 27 38 12 -4 14 -1 9 14 -3
10 1 33 9 49 9 17 16 40 16 52 0 28 5 23 14 -14 4 -19 3 -26 -4 -22 -6 4 -10
-3 -10 -17 1 -22 1 -22 13 -3 6 11 12 33 13 48 1 16 7 34 14 40 9 9 11 4 6
-23 -5 -27 -4 -30 3 -14 5 12 14 25 20 29 6 3 11 20 11 38 0 29 1 30 14 12 13
-19 15 -17 22 20 4 22 9 34 11 28 10 -28 31 -11 37 30 10 74 24 125 25 97 0
-14 -3 -41 -9 -59 -7 -27 -7 -32 2 -23 7 7 17 42 24 80 7 37 13 57 13 45 1
-16 5 -21 17 -16 12 5 15 14 10 42 -3 21 -2 30 3 22 12 -18 15 -11 45 101 81
300 95 695 35 976 -22 100 -82 296 -99 322 -15 23 -12 12 15 -65 13 -38 25
-82 25 -97 0 -15 5 -30 10 -33 6 -3 10 -13 10 -21 0 -8 -4 -13 -9 -10 -5 3 -5
-11 1 -32 15 -57 19 -169 8 -247 l-9 -70 4 95 c2 64 1 84 -5 60 -4 -19 -13
-50 -19 -69 -6 -21 -9 -100 -7 -205 4 -189 0 -194 -10 -12 -9 162 -23 130 -26
-59 l-2 -150 -6 175 -6 175 -2 -134 c-2 -137 -12 -164 -23 -63 l-6 57 -3 -80
-3 -80 -8 65 c-4 36 -11 81 -17 100 -9 32 -10 28 -13 -45 l-3 -80 -3 70 c-6
106 -23 105 -25 0 l-2 -90 -6 105 c-5 85 -7 94 -9 45 -2 -33 -3 -66 -2 -74 2
-7 -2 -10 -8 -6 -6 3 -12 25 -13 48 -1 23 -5 -5 -8 -63 l-6 -105 -2 98 c-1 56
-6 96 -11 93 -5 -3 -7 -16 -5 -29 3 -16 1 -15 -11 8 -14 29 -14 27 -10 -45 3
-55 2 -64 -4 -35 l-8 40 -3 -35 c-3 -29 -4 -26 -10 20 l-7 55 -3 -75 c-3 -74
-3 -74 -10 -25 -6 46 -7 47 -10 15 -3 -30 -4 -27 -10 20 l-7 55 -3 -80 c-3
-80 -3 -80 -10 -25 -6 55 -15 53 -23 -5 -4 -29 -4 -29 -6 4 -1 33 -2 34 -16
15 -13 -18 -14 -16 -16 21 l-1 40 -8 -38 c-10 -56 -20 -57 -21 -1 l-2 49 -6
-47 c-7 -46 -21 -77 -21 -45 0 9 -4 17 -10 17 -5 0 -10 -4 -10 -10 0 -5 -10
-18 -21 -29 -18 -16 -23 -38 -31 -116 -26 -283 -130 -596 -276 -828 -139 -221
-372 -483 -571 -643 -393 -316 -786 -490 -1291 -572 -178 -30 -566 -57 -665
-47 -53 5 -73 10 -60 15 19 7 18 8 -5 13 -14 3 1 4 33 1 70 -5 324 13 352 26
11 4 54 16 95 26 347 78 793 295 1083 526 178 142 426 438 497 593 50 108 79
200 84 260 2 28 15 91 29 140 104 357 66 707 -116 1070 -95 190 -217 328 -418
475 -215 156 -551 291 -1189 475 -69 20 -154 49 -190 65 -36 16 -137 58 -225
95 -264 109 -442 213 -640 372 -122 98 -200 179 -292 303 -127 173 -212 334
-262 494 -49 160 -75 474 -51 625 8 46 8 67 0 77 -7 7 -9 17 -6 23 4 5 10 31
15 58 11 54 29 108 36 101 2 -2 -2 -22 -9 -43 -8 -22 -16 -60 -20 -85 -5 -44
-5 -44 10 10 25 91 76 243 92 275 14 29 14 29 -3 15 -11 -8 -16 -10 -13 -5 3
6 2 19 -3 30 -6 17 -8 16 -10 -10z m-99 -310 c0 -8 -4 -15 -10 -15 -5 0 -10 7
-10 15 0 8 5 15 10 15 6 0 10 -7 10 -15z m-383 -517 c-3 -8 -6 -5 -6 6 -1 11
2 17 5 13 3 -3 4 -12 1 -19z m-50 -50 c-3 -7 -5 -2 -5 12 0 14 2 19 5 13 2 -7
2 -19 0 -25z m5064 -2701 c-10 -9 -11 -8 -5 6 3 10 9 15 12 12 3 -3 0 -11 -7
-18z m-3851 -71 c17 -32 29 -60 27 -62 -5 -5 -67 109 -67 122 0 12 8 0 40 -60z
m-151 -81 c-1 -22 -4 -15 -14 25 -8 30 -14 69 -14 85 1 22 4 15 14 -25 8 -30
14 -68 14 -85z m90 45 c0 -10 -3 -8 -9 5 -12 27 -12 43 0 25 5 -8 9 -22 9 -30z
m3968 -92 c-2 -24 -4 -5 -4 42 0 47 2 66 4 43 2 -24 2 -62 0 -85z m-4232 92
c3 -5 1 -10 -4 -10 -6 0 -11 5 -11 10 0 6 2 10 4 10 3 0 8 -4 11 -10z m138
-50 c4 -36 3 -48 -3 -35 -8 19 -14 103 -6 94 2 -2 6 -29 9 -59z m4064 8 c-2
-13 -4 -5 -4 17 -1 22 1 32 4 23 2 -10 2 -28 0 -40z m-3990 -40 c-3 -7 -5 -2
-5 12 0 14 2 19 5 13 2 -7 2 -19 0 -25z m3770 -10 c-3 -7 -5 -2 -5 12 0 14 2
19 5 13 2 -7 2 -19 0 -25z m-3880 -25 c-3 -10 -5 -2 -5 17 0 19 2 27 5 18 2
-10 2 -26 0 -35z m80 -10 c-3 -10 -5 -2 -5 17 0 19 2 27 5 18 2 -10 2 -26 0
-35z m-110 -55 c-3 -7 -5 -2 -5 12 0 14 2 19 5 13 2 -7 2 -19 0 -25z m-1159
-138 l-1 -55 -7 60 c-4 33 -8 78 -8 100 l1 40 8 -45 c4 -25 7 -70 7 -100z
m209 -62 c-2 -24 -4 -7 -4 37 0 44 2 63 4 43 2 -21 2 -57 0 -80z m850 90 c-3
-8 -6 -5 -6 6 -1 11 2 17 5 13 3 -3 4 -12 1 -19z m-1228 -110 l-2 -93 -9 69
c-9 62 -5 116 7 116 3 0 4 -42 4 -92z m1309 61 c-3 -8 -7 -3 -11 10 -4 17 -3
21 5 13 5 -5 8 -16 6 -23z m-24 -39 l7 -25 -15 25 c-9 14 -15 32 -15 40 0 13
1 13 8 0 5 -8 12 -26 15 -40z m-191 -39 c15 -27 34 -54 42 -61 8 -7 15 -17 15
-23 0 -20 -70 60 -85 97 -22 53 -3 44 28 -13z m-916 -8 c-3 -10 -5 -4 -5 12 0
17 2 24 5 18 2 -7 2 -21 0 -30z m250 -40 c-2 -16 -4 -3 -4 27 0 30 2 43 4 28
2 -16 2 -40 0 -55z m1379 5 c22 -41 10 -34 -17 10 -38 60 -42 68 -19 42 11
-14 27 -37 36 -52z m-1869 -30 c-2 -18 -4 -6 -4 27 0 33 2 48 4 33 2 -15 2
-42 0 -60z m630 45 c-3 -10 -5 -4 -5 12 0 17 2 24 5 18 2 -7 2 -21 0 -30z
m742 -3 c0 -10 -3 -8 -9 5 -12 27 -12 43 0 25 5 -8 9 -22 9 -30z m-792 8 c-3
-8 -6 -5 -6 6 -1 11 2 17 5 13 3 -3 4 -12 1 -19z m-40 -20 c-3 -7 -5 -2 -5 12
0 14 2 19 5 13 2 -7 2 -19 0 -25z m553 -21 c0 -5 6 -14 13 -22 6 -7 41 -43 76
-79 35 -37 62 -69 59 -72 -12 -11 -189 200 -188 224 1 9 39 -41 40 -51z m216
-64 c-5 -5 -56 45 -56 54 0 4 13 -6 30 -22 16 -16 28 -30 26 -32z m-719 25
c-3 -8 -6 -5 -6 6 -1 11 2 17 5 13 3 -3 4 -12 1 -19z m695 -55 c29 -32 65 -70
81 -86 15 -16 22 -27 15 -25 -13 5 -164 168 -155 168 3 0 30 -26 59 -57z m-7
-53 l59 -65 -63 60 c-34 33 -67 69 -73 80 -12 24 -11 23 77 -75z m110 63 l18
-28 -21 19 c-12 11 -22 23 -22 28 0 14 7 9 25 -19z m-5 -58 c35 -36 62 -65 59
-65 -2 0 -34 29 -69 65 -35 36 -62 65 -59 65 2 0 34 -29 69 -65z m-249 18 c13
-16 12 -17 -3 -4 -10 7 -18 15 -18 17 0 8 8 3 21 -13z m-48 -6 c42 -45 50 -58
35 -52 -8 3 -25 19 -37 35 -22 30 -20 42 2 17z m348 -4 c13 -16 12 -17 -3 -4
-17 13 -22 21 -14 21 2 0 10 -8 17 -17z m-307 -113 l41 -44 -50 44 c-45 40
-95 100 -95 115 0 3 14 -11 32 -32 17 -21 50 -58 72 -83z m4333 28 c-3 -8 -6
-5 -6 6 -1 11 2 17 5 13 3 -3 4 -12 1 -19z m-90 -155 c-3 -10 -5 -2 -5 17 0
19 2 27 5 18 2 -10 2 -26 0 -35z m-4187 -4 c0 -6 -4 -7 -10 -4 -5 3 -10 11
-10 16 0 6 5 7 10 4 6 -3 10 -11 10 -16z m4147 -41 c-3 -8 -6 -5 -6 6 -1 11 2
17 5 13 3 -3 4 -12 1 -19z m-5281 -225 c-5 -5 -56 124 -56 140 1 6 14 -22 30
-62 16 -41 28 -76 26 -78z m2605 -4 c-16 -6 -28 -6 -35 1 -7 7 1 10 25 9 32 0
33 -1 10 -10z m-894 -15 c-3 -3 -12 -4 -19 -1 -8 3 -5 6 6 6 11 1 17 -2 13 -5z
m756 -1 c-7 -2 -21 -2 -30 0 -10 3 -4 5 12 5 17 0 24 -2 18 -5z m-637 -18
c103 -15 444 -21 444 -7 0 4 42 7 93 8 l92 1 -75 -13 c-44 -8 -166 -14 -295
-15 -193 -1 -229 1 -295 19 -41 11 -72 20 -69 21 3 1 50 -6 105 -14z m3145
-118 c-10 -9 -11 -8 -5 6 3 10 9 15 12 12 3 -3 0 -11 -7 -18z m-178 -237 c-9
-11 -19 -17 -21 -15 -6 6 18 35 29 35 5 0 1 -9 -8 -20z m-294 -288 c-19 -21
-36 -37 -38 -36 -7 6 50 74 61 74 6 0 -5 -17 -23 -38z m-149 -107 c8 -11 10
-17 5 -12 -4 4 -18 -1 -29 -10 -21 -18 -21 -18 -5 2 9 11 14 27 11 35 -5 16
-3 15 18 -15z m-90 -85 c0 -5 -4 -10 -10 -10 -5 0 -10 5 -10 10 0 6 5 10 10
10 6 0 10 -4 10 -10z m-2627 -207 c-7 -2 -21 -2 -30 0 -10 3 -4 5 12 5 17 0
24 -2 18 -5z m134 -14 c180 -42 175 -52 -7 -15 -74 16 -102 25 -78 25 21 1 59
-4 85 -10z m-150 -5 c-3 -3 -12 -4 -19 -1 -8 3 -5 6 6 6 11 1 17 -2 13 -5z
m60 -10 c-3 -3 -12 -4 -19 -1 -8 3 -5 6 6 6 11 1 17 -2 13 -5z m50 -10 c-3 -3
-12 -4 -19 -1 -8 3 -5 6 6 6 11 1 17 -2 13 -5z m50 -10 c-3 -3 -12 -4 -19 -1
-8 3 -5 6 6 6 11 1 17 -2 13 -5z m160 -30 c-3 -3 -12 -4 -19 -1 -8 3 -5 6 6 6
11 1 17 -2 13 -5z"/>
<path d="M6941 7650 c0 -8 4 -24 9 -35 5 -13 9 -14 9 -5 0 8 -4 24 -9 35 -5
13 -9 14 -9 5z"/>
<path d="M6951 7484 c0 -11 3 -14 6 -6 3 7 2 16 -1 19 -3 4 -6 -2 -5 -13z"/>
<path d="M3601 7454 c0 -11 3 -14 6 -6 3 7 2 16 -1 19 -3 4 -6 -2 -5 -13z"/>
<path d="M6923 7430 c0 -25 2 -35 4 -22 2 12 2 32 0 45 -2 12 -4 2 -4 -23z"/>
<path d="M3501 7354 c0 -11 3 -14 6 -6 3 7 2 16 -1 19 -3 4 -6 -2 -5 -13z"/>
<path d="M7062 7150 c0 -14 2 -19 5 -12 2 6 2 18 0 25 -3 6 -5 1 -5 -13z"/>
<path d="M7085 7119 c-4 -6 -5 -12 -2 -15 2 -3 7 2 10 11 7 17 1 20 -8 4z"/>
<path d="M7137 7093 c-4 -3 -7 -11 -7 -17 0 -6 5 -5 12 2 6 6 9 14 7 17 -3 3
-9 2 -12 -2z"/>
<path d="M7197 7083 c-4 -3 -7 -11 -7 -17 0 -6 5 -5 12 2 6 6 9 14 7 17 -3 3
-9 2 -12 -2z"/>
<path d="M3212 7020 c0 -14 2 -19 5 -12 2 6 2 18 0 25 -3 6 -5 1 -5 -13z"/>
<path d="M7280 7029 c0 -5 5 -7 10 -4 6 3 10 8 10 11 0 2 -4 4 -10 4 -5 0 -10
-5 -10 -11z"/>
<path d="M7299 7003 c-13 -16 -12 -17 4 -4 9 7 17 15 17 17 0 8 -8 3 -21 -13z"/>
<path d="M7369 6993 l-24 -28 28 24 c15 14 27 26 27 28 0 8 -8 1 -31 -24z"/>
<path d="M7637 6989 c-4 -16 -3 -18 9 -8 7 6 11 15 8 20 -8 13 -11 11 -17 -12z"/>
<path d="M7320 6989 c0 -5 5 -7 10 -4 6 3 10 8 10 11 0 2 -4 4 -10 4 -5 0 -10
-5 -10 -11z"/>
<path d="M7403 6988 c-11 -19 -13 -39 -1 -32 5 3 7 9 4 12 -3 3 -1 11 5 19 6
7 9 13 6 13 -3 0 -9 -6 -14 -12z"/>
<path d="M7756 6985 c-11 -8 -17 -17 -14 -20 2 -3 13 4 23 15 21 23 18 25 -9
5z"/>
<path d="M7449 6953 c-13 -16 -12 -17 4 -4 16 13 21 21 13 21 -2 0 -10 -8 -17
-17z"/>
<path d="M7484 6955 c-10 -8 -14 -15 -8 -15 6 0 17 7 24 15 16 19 9 19 -16 0z"/>
<path d="M7355 6950 c-3 -6 1 -7 9 -4 18 7 21 14 7 14 -6 0 -13 -4 -16 -10z"/>
<path d="M7796 6944 c-9 -24 -2 -26 12 -4 7 11 8 20 3 20 -5 0 -12 -7 -15 -16z"/>
<path d="M7624 6928 c-10 -13 -12 -17 -4 -11 8 6 19 11 25 11 5 0 11 5 13 11
6 19 -14 12 -34 -11z"/>
<path d="M2954 6916 c-3 -14 -1 -33 5 -43 8 -15 10 -10 11 25 0 47 -6 55 -16
18z"/>
<path d="M7375 6930 c-3 -5 -1 -10 4 -10 6 0 11 5 11 10 0 6 -2 10 -4 10 -3 0
-8 -4 -11 -10z"/>
<path d="M7750 6910 c0 -5 5 -10 10 -10 6 0 10 5 10 10 0 6 -4 10 -10 10 -5 0
-10 -4 -10 -10z"/>
<path d="M7796 6895 c4 -8 2 -15 -3 -15 -5 0 -18 -7 -29 -15 -19 -15 -19 -15
1 -9 42 14 72 54 40 54 -9 0 -12 -6 -9 -15z"/>
<path d="M7518 6884 c-38 -20 -36 -28 2 -9 17 9 30 18 30 20 0 7 -1 6 -32 -11z"/>
<path d="M7550 6869 c-42 -18 -43 -19 -10 -13 19 3 40 10 46 15 6 5 15 5 19 1
5 -4 5 -1 1 6 -4 6 -8 12 -9 11 -1 -1 -22 -10 -47 -20z"/>
<path d="M7825 6870 c-3 -5 -1 -10 4 -10 6 0 11 5 11 10 0 6 -2 10 -4 10 -3 0
-8 -4 -11 -10z"/>
<path d="M7470 6840 c-8 -5 -10 -10 -5 -10 6 0 17 5 25 10 8 5 11 10 5 10 -5
0 -17 -5 -25 -10z"/>
<path d="M7405 6820 l-20 -9 20 0 c11 0 27 4 35 9 13 9 13 10 0 9 -8 0 -24 -4
-35 -9z"/>
<path d="M7688 6814 c-15 -8 -51 -19 -80 -24 -65 -12 -158 -42 -158 -51 0 -4
34 4 75 17 42 13 86 24 98 24 25 1 130 49 107 49 -8 0 -27 -6 -42 -15z"/>
<path d="M7753 6810 c-13 -5 -23 -11 -23 -14 0 -8 30 0 42 12 14 14 11 14 -19
2z"/>
<path d="M7678 6774 c-39 -21 -35 -28 5 -8 37 19 44 24 31 24 -5 -1 -21 -8
-36 -16z"/>
<path d="M7770 6780 c-9 -6 -10 -10 -3 -10 6 0 15 5 18 10 8 12 4 12 -15 0z"/>
<path d="M6610 6740 c0 -5 5 -10 11 -10 5 0 7 5 4 10 -3 6 -8 10 -11 10 -2 0
-4 -4 -4 -10z"/>
<path d="M7606 6741 c-4 -5 3 -7 14 -4 23 6 26 13 6 13 -8 0 -17 -4 -20 -9z"/>
<path d="M7543 6712 c-13 -2 -23 -7 -23 -12 0 -4 15 -5 33 -1 17 4 35 7 39 7
3 -1 10 2 14 7 7 7 -13 6 -63 -1z"/>
<path d="M7490 6690 c0 -5 5 -10 10 -10 6 0 10 5 10 10 0 6 -4 10 -10 10 -5 0
-10 -4 -10 -10z"/>
<path d="M7458 6673 c7 -3 16 -2 19 1 4 3 -2 6 -13 5 -11 0 -14 -3 -6 -6z"/>
<path d="M7398 6663 c6 -2 18 -2 25 0 6 3 1 5 -13 5 -14 0 -19 -2 -12 -5z"/>
<path d="M7490 6660 c-18 -12 -2 -12 25 0 13 6 15 9 5 9 -8 0 -22 -4 -30 -9z"/>
<path d="M5773 6585 c0 -38 2 -53 4 -32 2 20 2 52 0 70 -2 17 -4 1 -4 -38z"/>
<path d="M7568 6643 c7 -3 16 -2 19 1 4 3 -2 6 -13 5 -11 0 -14 -3 -6 -6z"/>
<path d="M7455 6610 c-13 -6 -15 -9 -5 -9 8 0 22 4 30 9 18 12 2 12 -25 0z"/>
<path d="M7298 6553 c6 -2 18 -2 25 0 6 3 1 5 -13 5 -14 0 -19 -2 -12 -5z"/>
<path d="M7428 6553 c7 -3 16 -2 19 1 4 3 -2 6 -13 5 -11 0 -14 -3 -6 -6z"/>
<path d="M7053 6543 c43 -2 110 -2 150 0 40 1 5 3 -78 3 -82 0 -115 -2 -72 -3z"/>
<path d="M5848 6413 c7 -3 16 -2 19 1 4 3 -2 6 -13 5 -11 0 -14 -3 -6 -6z"/>
<path d="M5898 6403 c7 -3 16 -2 19 1 4 3 -2 6 -13 5 -11 0 -14 -3 -6 -6z"/>
<path d="M8114 5180 c54 -88 174 -347 204 -440 50 -154 61 -202 82 -337 64
-428 11 -878 -151 -1286 -92 -231 -231 -453 -432 -691 -232 -275 -629 -564
-967 -705 -428 -177 -876 -261 -1405 -263 -306 -1 -451 14 -820 82 -241 45
-676 201 -864 311 -20 11 -30 15 -23 8 6 -7 12 -22 12 -33 0 -14 17 -32 45
-51 25 -16 45 -35 45 -42 0 -6 9 -14 20 -18 10 -3 30 -19 43 -35 15 -17 29
-25 36 -20 7 4 24 -4 41 -19 51 -46 97 -81 108 -81 6 0 16 -8 22 -17 8 -13 13
-14 16 -6 4 8 16 2 34 -17 20 -21 40 -30 62 -31 34 0 86 -17 59 -18 -12 -1
-12 -3 1 -13 9 -7 18 -22 21 -33 4 -18 5 -18 6 2 1 31 16 36 50 18 17 -8 34
-14 38 -13 12 4 77 -24 85 -36 4 -6 8 -24 8 -40 0 -21 4 -27 15 -23 8 4 17 2
20 -3 3 -5 30 -12 60 -15 30 -4 55 -12 55 -17 0 -5 10 -8 23 -6 16 2 23 11 27
37 l5 33 20 -22 c11 -12 33 -27 50 -34 l30 -13 -37 -7 c-21 -4 -42 -15 -48
-25 -8 -16 -4 -19 33 -25 24 -4 58 -20 80 -37 l37 -30 0 46 0 46 30 -16 c16
-8 55 -15 89 -15 60 0 60 0 65 -32 3 -18 7 -49 8 -68 l3 -35 88 -5 c53 -3 88
-1 91 5 2 6 9 5 17 -3 7 -6 27 -12 43 -12 17 0 47 -3 68 -6 34 -6 36 -9 43
-53 4 -27 10 -40 14 -31 7 18 47 25 56 10 3 -5 15 -10 25 -10 29 0 70 -22 70
-37 0 -7 5 -13 10 -13 6 0 10 22 10 49 0 28 5 53 10 56 6 3 10 2 10 -4 0 -16
71 -25 112 -14 42 11 48 5 48 -51 0 -40 8 -50 28 -34 7 7 39 12 69 12 42 1 58
-3 69 -18 12 -17 14 -17 20 -2 3 9 10 40 14 69 4 28 8 47 9 41 0 -6 14 -9 31
-6 19 3 30 0 30 -8 0 -8 16 -10 55 -7 l55 4 1 -56 c1 -31 4 -46 6 -34 4 22 9
23 83 23 72 0 79 -2 87 -22 6 -17 9 -5 13 47 l5 69 35 10 c35 9 134 11 244 5
48 -3 60 -8 67 -24 7 -17 8 -18 10 -2 5 38 3 42 -13 39 -11 -2 -18 3 -18 13 0
8 7 15 15 15 8 0 15 -4 15 -10 0 -6 36 -10 89 -10 96 0 101 3 101 57 0 15 2
24 5 21 3 -3 42 2 85 12 72 16 80 16 80 2 0 -12 3 -13 12 -4 7 7 39 12 74 12
51 0 65 -4 77 -20 18 -26 27 -16 27 31 0 42 26 65 63 55 11 -3 32 1 47 9 15 8
31 11 34 7 4 -3 11 0 17 8 7 12 10 11 15 -7 6 -23 24 -32 24 -13 0 6 19 10 43
11 23 1 53 5 67 9 21 7 18 8 -20 10 -42 2 -43 2 -16 10 16 5 34 7 39 3 5 -3
13 1 18 8 8 12 11 12 19 -1 8 -12 10 -8 11 15 1 24 3 25 6 8 2 -13 8 -23 13
-23 19 0 40 13 34 21 -11 18 48 59 84 59 11 0 26 -10 34 -22 14 -21 16 -19 22
43 l7 66 52 7 c29 3 69 6 90 6 l37 0 0 44 c0 58 10 107 21 100 5 -3 9 0 9 5 0
6 11 11 25 11 13 0 28 6 32 14 4 8 28 16 53 17 l45 4 3 -52 c2 -29 7 -53 13
-53 5 0 9 9 9 21 0 11 5 17 10 14 6 -3 10 -2 10 4 0 5 18 12 40 16 30 5 40 11
40 25 0 15 -10 20 -47 25 -67 9 -76 13 -69 31 3 9 6 26 6 38 0 14 6 22 18 23
54 3 87 12 84 24 -6 26 8 56 32 67 30 13 36 8 37 -37 l2 -36 6 40 c4 30 10 39
23 37 9 -1 20 2 23 8 4 6 1 11 -6 9 -25 -3 -39 1 -39 11 0 6 14 10 30 10 23 0
30 4 30 20 0 11 5 20 11 20 13 0 39 25 39 38 0 5 11 14 25 20 14 6 26 17 26
24 1 7 5 -3 9 -22 l7 -35 2 38 c1 25 6 37 15 37 8 0 17 6 19 13 4 9 8 8 16 -3
9 -13 11 -13 11 3 0 9 6 17 13 18 6 0 1 5 -13 11 -19 8 -21 12 -10 16 19 6 60
50 60 63 0 5 9 9 20 9 25 0 26 17 3 23 -14 4 -13 5 4 6 13 1 23 -6 26 -17 3
-9 5 4 6 31 1 42 -1 47 -21 48 -21 1 -21 2 5 12 15 6 27 15 27 19 0 10 46 58
55 58 10 0 29 22 44 53 8 15 20 27 27 27 6 0 15 7 18 16 9 22 8 24 -9 24 -11
0 -15 11 -15 40 0 22 5 40 10 40 6 0 10 25 10 55 0 42 4 56 18 64 14 7 17 18
14 44 -2 19 1 38 7 41 6 4 11 22 11 39 0 21 7 38 20 47 27 19 25 32 -2 28 -22
-3 -23 -1 -23 92 0 92 1 94 25 100 17 4 21 8 12 14 -25 15 -8 156 20 156 4 0
8 6 8 14 0 8 9 18 21 21 19 6 19 8 3 19 -15 12 -15 13 0 19 12 5 16 20 16 67
0 41 4 60 13 60 8 0 7 4 -3 10 -11 7 -7 10 20 11 19 1 -1 6 -45 10 -44 5 -86
11 -92 14 -9 3 -13 31 -13 94 l0 89 43 8 42 7 -30 11 c-31 11 -31 11 -31 89 0
45 -6 83 -12 89 -9 9 -12 -13 -14 -92 -1 -80 -3 -89 -5 -37 -2 37 -8 67 -13
67 -5 0 -14 10 -21 21 -9 18 -7 25 14 43 24 20 25 25 29 176 3 85 3 127 1 93
-2 -35 -6 -63 -9 -63 -3 0 -25 5 -50 11 -39 10 -44 15 -44 39 0 16 6 30 13 33
9 3 9 8 -1 23 -7 11 -15 27 -18 37 -4 9 -10 17 -15 17 -5 0 -9 7 -9 15 0 11
11 15 39 15 73 0 96 23 39 38 -28 7 -34 14 -39 46 -3 21 -12 42 -19 46 -8 5
-10 17 -6 33 6 26 -7 37 -44 37 -15 0 -19 12 -25 70 -5 50 -11 70 -21 70 -8 0
-14 9 -14 19 0 11 -8 22 -17 24 -14 4 -12 5 5 6 41 2 23 20 -28 27 -36 5 -51
12 -55 25 -4 11 -12 19 -20 19 -15 0 -25 22 -25 57 0 20 -3 23 -13 14 -11 -8
-13 -5 -9 19 3 21 0 30 -9 30 -11 0 -12 2 -1 9 8 5 -12 10 -53 14 -36 4 -70 9
-75 12 -6 4 -10 27 -10 53 -1 52 -28 94 -70 107 -18 6 -20 9 -9 16 9 6 10 9 2
9 -15 0 -81 67 -88 89 -3 10 -17 17 -36 18 -18 1 -43 13 -57 25 l-25 23 27
-45z m-3274 -3888 c0 -4 -9 -8 -20 -8 -11 0 -20 4 -20 8 0 4 9 8 20 8 11 0 20
-4 20 -8z m1800 -192 c0 -5 -18 -10 -40 -10 -22 0 -40 5 -40 10 0 6 18 10 40
10 22 0 40 -4 40 -10z"/>
<path d="M7105 5090 c10 -11 20 -20 23 -20 3 0 -3 9 -13 20 -10 11 -20 20 -23
20 -3 0 3 -9 13 -20z"/>
<path d="M7215 4990 c21 -22 41 -40 44 -40 3 0 -13 18 -34 40 -21 22 -41 40
-44 40 -3 0 13 -18 34 -40z"/>
<path d="M7316 4863 c47 -68 86 -115 68 -83 -15 28 -106 150 -111 150 -2 0 17
-30 43 -67z"/>
<path d="M4064 4901 c3 -5 16 -11 28 -14 22 -6 22 -5 4 8 -22 17 -40 20 -32 6z"/>
<path d="M4150 4866 c0 -2 17 -15 38 -27 20 -13 48 -36 60 -51 13 -16 28 -26
33 -22 5 3 9 0 9 -5 0 -20 19 -11 22 9 3 19 8 17 63 -19 33 -22 70 -41 82 -41
29 0 50 -35 27 -48 -14 -8 -14 -10 0 -21 13 -11 16 -11 16 3 0 18 28 20 117
10 l51 -7 7 -53 c5 -43 10 -54 24 -54 10 0 26 -9 36 -20 10 -11 30 -20 45 -20
15 0 33 -6 40 -14 18 -22 37 -9 46 32 4 20 9 30 11 21 4 -15 46 -31 108 -42
11 -2 19 -10 17 -18 -1 -9 3 -8 12 5 14 18 15 18 13 -2 -1 -19 -6 -20 -43 -15
-50 7 -117 -4 -109 -17 3 -5 25 -14 48 -20 65 -17 95 -33 106 -55 8 -16 10
-11 10 28 l1 47 44 0 c26 0 48 -6 56 -14 6 -8 18 -12 26 -9 24 9 54 -32 54
-72 0 -19 3 -35 8 -36 4 0 18 -2 32 -3 58 -6 110 -18 105 -26 -6 -10 24 -22
36 -14 5 3 9 16 9 30 0 20 3 23 18 15 31 -16 88 -31 118 -32 52 -1 -4 -18 -63
-18 -55 -1 -70 -14 -30 -27 12 -4 24 -9 27 -13 6 -7 70 -32 89 -34 8 -1 17 8
20 21 7 27 0 26 95 17 82 -8 82 -7 92 -86 4 -28 10 -46 13 -40 5 7 17 8 37 1
116 -36 144 -37 144 -4 0 12 5 14 18 9 9 -4 29 -10 45 -13 39 -6 33 -21 -13
-28 -22 -4 -40 -10 -40 -14 0 -4 30 -17 66 -29 37 -12 75 -32 85 -44 l18 -22
1 37 c0 20 5 40 10 43 6 3 10 1 10 -5 0 -6 4 -9 9 -5 5 3 15 -11 21 -31 7 -19
14 -33 17 -30 3 3 -10 38 -29 78 -97 203 -330 357 -658 434 -85 20 -236 56
-335 80 -219 52 -452 107 -560 129 -44 10 -134 37 -200 62 -109 40 -151 57
-252 100 -18 7 -33 11 -33 9z"/>
<path d="M7411 4725 c12 -22 26 -44 32 -50 15 -16 -20 48 -38 70 -9 11 -7 2 6
-20z"/>
<path d="M4099 4336 c26 -28 31 -31 31 -17 0 5 -12 17 -27 26 l-28 18 24 -27z"/>
<path d="M4219 4322 c6 -12 16 -24 22 -28 8 -4 8 -1 0 14 -6 12 -16 24 -22 28
-8 4 -8 1 0 -14z"/>
<path d="M4158 4298 c12 -13 22 -29 22 -35 0 -6 6 -16 14 -23 8 -6 13 -17 10
-25 -3 -7 -1 -16 5 -20 6 -3 11 1 11 10 0 10 5 13 13 9 6 -4 0 6 -15 23 -16
16 -28 34 -28 40 0 6 -12 19 -27 28 l-28 18 23 -25z"/>
<path d="M4030 4285 c14 -8 30 -14 35 -14 6 0 -1 6 -15 14 -14 8 -29 14 -35
14 -5 0 1 -6 15 -14z"/>
<path d="M4110 4296 c0 -2 7 -7 16 -10 8 -3 12 -2 9 4 -6 10 -25 14 -25 6z"/>
<path d="M4020 4250 c8 -5 20 -10 25 -10 6 0 3 5 -5 10 -8 5 -19 10 -25 10 -5
0 -3 -5 5 -10z"/>
<path d="M4080 4247 c0 -3 12 -19 26 -34 19 -20 24 -22 16 -7 -11 21 -42 51
-42 41z"/>
<path d="M8171 4204 c0 -11 3 -14 6 -6 3 7 2 16 -1 19 -3 4 -6 -2 -5 -13z"/>
<path d="M4004 4133 c42 -22 96 -44 96 -38 0 6 -104 55 -116 55 -5 -1 4 -8 20
-17z"/>
<path d="M3029 4103 c-13 -16 -12 -17 4 -4 16 13 21 21 13 21 -2 0 -10 -8 -17
-17z"/>
<path d="M7933 4070 c0 -25 2 -35 4 -22 2 12 2 32 0 45 -2 12 -4 2 -4 -23z"/>
<path d="M7982 4090 c0 -14 2 -19 5 -12 2 6 2 18 0 25 -3 6 -5 1 -5 -13z"/>
<path d="M2982 4088 c-14 -18 -43 -78 -38 -78 2 0 16 20 29 45 25 45 29 57 9
33z"/>
<path d="M3216 4084 c-5 -14 -4 -15 9 -4 17 14 19 20 6 20 -5 0 -12 -7 -15
-16z"/>
<path d="M3040 4070 c-6 -11 -8 -20 -6 -20 3 0 10 9 16 20 6 11 8 20 6 20 -3
0 -10 -9 -16 -20z"/>
<path d="M8928 4083 c7 -3 16 -2 19 1 4 3 -2 6 -13 5 -11 0 -14 -3 -6 -6z"/>
<path d="M3005 4069 c-4 -6 -5 -12 -2 -15 2 -3 7 2 10 11 7 17 1 20 -8 4z"/>
<path d="M3104 4055 c-9 -14 -15 -28 -12 -30 2 -2 12 9 22 25 21 36 13 40 -10
5z"/>
<path d="M4056 4065 c4 -8 10 -12 15 -9 11 6 2 24 -11 24 -5 0 -7 -7 -4 -15z"/>
<path d="M2855 4039 c-4 -6 -5 -12 -2 -15 2 -3 7 2 10 11 7 17 1 20 -8 4z"/>
<path d="M3056 4025 c-9 -26 -7 -32 5 -12 6 10 9 21 6 23 -2 3 -7 -2 -11 -11z"/>
<path d="M3127 4033 c-4 -3 -7 -13 -7 -22 1 -13 3 -13 11 2 11 19 8 33 -4 20z"/>
<path d="M2871 3999 c-6 -18 -11 -39 -10 -48 1 -9 7 4 15 28 16 51 12 68 -5
20z"/>
<path d="M3026 4015 c-3 -9 -6 -22 -5 -28 0 -7 5 -1 10 12 5 13 8 26 5 28 -2
2 -6 -3 -10 -12z"/>
<path d="M2926 3983 c-6 -14 -5 -15 5 -6 7 7 10 15 7 18 -3 3 -9 -2 -12 -12z"/>
<path d="M3211 3978 c0 -9 -4 -25 -7 -35 -5 -17 -5 -17 6 0 6 10 9 25 7 35 -4
15 -5 15 -6 0z"/>
<path d="M3820 3981 c0 -5 5 -13 10 -16 6 -3 10 -2 10 4 0 5 -4 13 -10 16 -5
3 -10 2 -10 -4z"/>
<path d="M2831 3964 c0 -11 3 -14 6 -6 3 7 2 16 -1 19 -3 4 -6 -2 -5 -13z"/>
<path d="M3750 3895 c0 -14 4 -25 9 -25 4 0 6 11 3 25 -2 14 -6 25 -8 25 -2 0
-4 -11 -4 -25z"/>
<path d="M6231 3904 c0 -11 3 -14 6 -6 3 7 2 16 -1 19 -3 4 -6 -2 -5 -13z"/>
<path d="M7711 3904 c0 -11 3 -14 6 -6 3 7 2 16 -1 19 -3 4 -6 -2 -5 -13z"/>
<path d="M2782 3880 c0 -14 2 -19 5 -12 2 6 2 18 0 25 -3 6 -5 1 -5 -13z"/>
<path d="M6243 3815 c0 -27 2 -38 4 -22 2 15 2 37 0 50 -2 12 -4 0 -4 -28z"/>
<path d="M2742 3810 c0 -14 2 -19 5 -12 2 6 2 18 0 25 -3 6 -5 1 -5 -13z"/>
<path d="M2711 3674 c0 -11 3 -14 6 -6 3 7 2 16 -1 19 -3 4 -6 -2 -5 -13z"/>
<path d="M3482 3660 c0 -14 2 -19 5 -12 2 6 2 18 0 25 -3 6 -5 1 -5 -13z"/>
<path d="M2703 3605 c0 -22 2 -30 4 -17 2 12 2 30 0 40 -3 9 -5 -1 -4 -23z"/>
<path d="M2646 3375 c2 -33 9 -74 14 -90 7 -25 8 -21 4 20 -2 28 -9 68 -14 90
-8 36 -9 34 -4 -20z"/>
<path d="M7957 2900 c3 -11 7 -20 9 -20 2 0 4 9 4 20 0 11 -4 20 -9 20 -5 0
-7 -9 -4 -20z"/>
<path d="M8891 2614 c0 -11 3 -14 6 -6 3 7 2 16 -1 19 -3 4 -6 -2 -5 -13z"/>
<path d="M8893 2525 c0 -22 2 -30 4 -17 2 12 2 30 0 40 -3 9 -5 -1 -4 -23z"/>
<path d="M8890 2460 c0 -5 5 -10 11 -10 5 0 7 5 4 10 -3 6 -8 10 -11 10 -2 0
-4 -4 -4 -10z"/>
<path d="M8892 2410 c0 -19 2 -27 5 -17 2 9 2 25 0 35 -3 9 -5 1 -5 -18z"/>
<path d="M7405 2322 c-3 -11 -17 -24 -31 -31 -25 -11 -26 -12 -9 -31 18 -20
36 -18 34 3 0 8 -2 8 -6 -1 -4 -10 -8 -10 -19 -1 -12 10 -11 14 7 23 25 13 57
56 41 56 -6 0 -13 -8 -17 -18z"/>
<path d="M6046 2027 c-16 -12 -16 -13 2 -14 10 -1 19 5 19 13 0 17 1 17 -21 1z"/>
<path d="M5875 1943 c-21 -11 -26 -18 -15 -21 7 -3 16 0 18 6 2 6 10 8 19 5
10 -4 14 -2 10 4 -4 6 -1 14 5 16 7 3 9 6 3 6 -5 0 -23 -7 -40 -16z"/>
<path d="M5817 1924 c-3 -3 -3 -13 0 -22 4 -14 3 -14 -5 -3 -9 12 -17 11 -54
-6 -24 -12 -98 -40 -165 -64 -67 -23 -120 -47 -116 -52 3 -5 10 -4 16 2 16 16
24 14 29 -6 4 -15 14 -18 54 -16 74 3 183 27 162 35 -24 10 -23 28 2 28 11 0
19 -6 18 -12 -2 -9 11 -14 37 -15 22 -1 32 1 23 4 -10 2 -18 11 -18 19 0 8 5
12 10 9 6 -3 16 -3 23 2 6 4 17 8 22 9 6 1 21 7 35 12 18 8 20 11 8 11 -10 1
-18 6 -18 11 0 6 -9 10 -20 10 -15 0 -20 7 -20 25 0 24 -10 32 -23 19z m-61
-56 c4 -6 3 -8 -3 -5 -6 4 -14 0 -17 -9 -4 -9 -9 -14 -13 -11 -3 4 0 13 7 22
15 18 17 18 26 3z m-111 -57 c-3 -6 -11 -11 -16 -11 -5 0 -4 6 3 14 14 16 24
13 13 -3z m-35 5 c0 -2 -7 -7 -16 -10 -8 -3 -12 -2 -9 4 6 10 25 14 25 6z
m180 -6 c0 -5 -4 -10 -10 -10 -5 0 -10 5 -10 10 0 6 5 10 10 10 6 0 10 -4 10
-10z m-100 -22 c-13 -5 -31 -7 -39 -5 -10 3 -7 5 7 6 13 0 21 5 18 10 -4 5 4
7 16 3 22 -5 22 -5 -2 -14z m-103 -14 c-3 -3 -12 -4 -19 -1 -8 3 -5 6 6 6 11
1 17 -2 13 -5z"/>
<path d="M5895 1830 c3 -5 8 -10 11 -10 2 0 4 5 4 10 0 6 -5 10 -11 10 -5 0
-7 -4 -4 -10z"/>
<path d="M5853 1813 c9 -2 23 -2 30 0 6 3 -1 5 -18 5 -16 0 -22 -2 -12 -5z"/>
<path d="M5436 1772 c-2 -4 4 -8 14 -8 10 0 16 4 14 8 -3 4 -9 8 -14 8 -5 0
-11 -4 -14 -8z"/>
<path d="M5358 1753 c6 -2 18 -2 25 0 6 3 1 5 -13 5 -14 0 -19 -2 -12 -5z"/>
<path d="M5558 1743 c6 -2 18 -2 25 0 6 3 1 5 -13 5 -14 0 -19 -2 -12 -5z"/>
<path d="M8310 1660 c0 -5 5 -10 10 -10 6 0 10 5 10 10 0 6 -4 10 -10 10 -5 0
-10 -4 -10 -10z"/>
<path d="M8010 1480 c0 -5 5 -10 11 -10 5 0 7 5 4 10 -3 6 -8 10 -11 10 -2 0
-4 -4 -4 -10z"/>
<path d="M7728 1373 c7 -3 16 -2 19 1 4 3 -2 6 -13 5 -11 0 -14 -3 -6 -6z"/>
<path d="M6125 870 c3 -5 8 -10 11 -10 2 0 4 5 4 10 0 6 -5 10 -11 10 -5 0 -7
-4 -4 -10z"/>
</g>
</svg>
